<?xml version="1.0" encoding="UTF-8"?><svg id="a" xmlns="http://www.w3.org/2000/svg" viewBox="0 0 10.73 10.73"><defs><style>.e{fill:#5ab463;}</style></defs><g id="b" transform="translate(-3.375 -3.375)"><path id="c" class="e" d="M5.36,.72c2.56,0,4.64,2.08,4.63,4.64,0,2.56-2.08,4.64-4.64,4.63-2.56,0-4.64-2.08-4.63-4.64,0-1.23,.49-2.41,1.36-3.28,.87-.87,2.05-1.36,3.28-1.36M5.36,0C2.4,0,0,2.4,0,5.37c0,2.96,2.4,5.36,5.36,5.36,2.96,0,5.36-2.4,5.36-5.36h0C10.73,2.4,8.33,0,5.36,0h0Z"/><path id="d" class="e" d="M8.13,2.59c-1.53-1.53-4.01-1.53-5.55,0-1.53,1.53-1.53,4.01,0,5.55,1.53,1.53,4.01,1.53,5.55,0,.74-.74,1.15-1.73,1.15-2.77,0-1.04-.41-2.04-1.15-2.77Z"/></g></svg>