<?xml version="1.0" encoding="UTF-8"?><svg id="a" xmlns="http://www.w3.org/2000/svg" viewBox="0 0 218.48 334.07"><defs><style>.cls-1{fill:#5ab463;isolation:isolate;opacity:.43;}.cls-2{fill:none;stroke:#5eb563;stroke-width:5px;}.cls-3{fill:#5eb563;}.cls-4{fill:#5db463;}</style></defs><path id="b" class="cls-4" d="M216.89,37.21v11.03h-11.03v-11.03h11.03m0-1.57h-11.03c-.87,0-1.57,.71-1.57,1.57v11.03c0,.87,.71,1.57,1.57,1.58h11.03c.87,0,1.57-.71,1.58-1.58v-11.03c0-.87-.71-1.57-1.58-1.57Z"/><path id="c" class="cls-4" d="M216.89,64.54v11.03h-11.03v-11.03h11.03m0-1.57h-11.03c-.87,0-1.57,.71-1.57,1.57v11.03c0,.87,.71,1.57,1.57,1.58h11.03c.87,0,1.57-.71,1.58-1.58v-11.03c0-.87-.71-1.57-1.58-1.57Z"/><path id="d" class="cls-4" d="M216.89,91.86v11.03h-11.03v-11.03h11.03m0-1.57h-11.03c-.87,0-1.57,.71-1.57,1.57v11.03c0,.87,.71,1.57,1.57,1.58h11.03c.87,0,1.57-.71,1.58-1.58v-11.03c0-.87-.71-1.57-1.58-1.57Z"/><path id="e" class="cls-4" d="M216.89,119.19v11.03h-11.03v-11.03h11.03m0-1.57h-11.03c-.87,0-1.57,.71-1.57,1.57v11.03c0,.87,.71,1.57,1.57,1.58h11.03c.87,0,1.57-.71,1.58-1.58v-11.03c0-.87-.71-1.57-1.58-1.57Z"/><path id="f" class="cls-4" d="M216.89,146.51v11.03h-11.03v-11.03h11.03m0-1.57h-11.03c-.87,0-1.57,.71-1.57,1.57v11.03c0,.87,.71,1.57,1.57,1.58h11.03c.87,0,1.57-.71,1.58-1.58v-11.03c0-.87-.71-1.57-1.58-1.57Z"/><path id="g" class="cls-4" d="M216.89,173.84v11.03h-11.03v-11.03h11.03m0-1.57h-11.03c-.87,0-1.57,.71-1.57,1.57v11.03c0,.87,.71,1.57,1.57,1.58h11.03c.87,0,1.57-.71,1.58-1.58v-11.03c0-.87-.71-1.57-1.58-1.57Z"/><path id="h" class="cls-4" d="M216.89,201.16v11.03h-11.03v-11.03h11.03m0-1.57h-11.03c-.87,0-1.57,.71-1.57,1.57v11.03c0,.87,.71,1.57,1.57,1.58h11.03c.87,0,1.57-.71,1.58-1.58v-11.03c0-.87-.71-1.57-1.58-1.57Z"/><path id="i" class="cls-4" d="M216.89,228.49v11.03h-11.03v-11.03h11.03m0-1.57h-11.03c-.87,0-1.57,.71-1.57,1.57v11.03c0,.87,.71,1.57,1.57,1.58h11.03c.87,0,1.57-.71,1.58-1.58v-11.03c0-.87-.71-1.57-1.58-1.57Z"/><path id="j" class="cls-4" d="M216.89,255.81v11.03h-11.03v-11.03h11.03m0-1.57h-11.03c-.87,0-1.57,.71-1.57,1.57v11.03c0,.87,.71,1.57,1.57,1.58h11.03c.87,0,1.57-.71,1.58-1.58v-11.03c0-.87-.71-1.57-1.58-1.57Z"/><path id="k" class="cls-4" d="M216.89,283.14v11.03h-11.03v-11.03h11.03m0-1.57h-11.03c-.87,0-1.57,.71-1.57,1.57v11.03c0,.87,.71,1.57,1.57,1.58h11.03c.87,0,1.57-.71,1.58-1.58v-11.03c0-.87-.71-1.57-1.58-1.57Z"/><path id="l" class="cls-4" d="M216.89,310.46v11.03h-11.03v-11.03h11.03m0-1.57h-11.03c-.87,0-1.57,.71-1.57,1.57v11.03c0,.87,.71,1.57,1.57,1.58h11.03c.87,0,1.57-.71,1.58-1.58v-11.03c0-.87-.71-1.57-1.58-1.57Z"/><path id="m" class="cls-4" d="M12.6,37.21v11.03H1.57v-11.03H12.6m0-1.57H1.57c-.87,0-1.57,.71-1.57,1.57v11.03c0,.87,.71,1.57,1.57,1.58H12.6c.87,0,1.57-.71,1.58-1.58v-11.03c0-.87-.71-1.57-1.58-1.57Z"/><path id="m-2" class="cls-4" d="M12.6,9.88v11.03H1.57V9.88H12.6m0-1.57H1.57c-.87,0-1.57,.71-1.57,1.57v11.03c0,.87,.71,1.57,1.57,1.58H12.6c.87,0,1.57-.71,1.58-1.58V9.88c0-.87-.71-1.57-1.58-1.57Z"/><path id="m-3" class="cls-4" d="M216.89,9.88v11.03h-11.03V9.88h11.03m0-1.57h-11.03c-.87,0-1.57,.71-1.57,1.57v11.03c0,.87,.71,1.57,1.57,1.58h11.03c.87,0,1.57-.71,1.58-1.58V9.88c0-.87-.71-1.57-1.58-1.57Z"/><path id="n" class="cls-4" d="M12.6,64.54v11.03H1.57v-11.03H12.6m0-1.57H1.57c-.87,0-1.57,.71-1.57,1.57v11.03c0,.87,.71,1.57,1.57,1.58H12.6c.87,0,1.57-.71,1.58-1.58v-11.03c0-.87-.71-1.57-1.58-1.57Z"/><path id="o" class="cls-4" d="M12.6,91.86v11.03H1.57v-11.03H12.6m0-1.57H1.57c-.87,0-1.57,.71-1.57,1.57v11.03c0,.87,.71,1.57,1.57,1.58H12.6c.87,0,1.57-.71,1.58-1.58v-11.03c0-.87-.71-1.57-1.58-1.57Z"/><path id="p" class="cls-4" d="M12.6,119.19v11.03H1.57v-11.03H12.6m0-1.57H1.57c-.87,0-1.57,.71-1.57,1.57v11.03c0,.87,.71,1.57,1.57,1.58H12.6c.87,0,1.57-.71,1.58-1.58v-11.03c0-.87-.71-1.57-1.58-1.57Z"/><path id="q" class="cls-4" d="M12.6,146.51v11.03H1.57v-11.03H12.6m0-1.57H1.57c-.87,0-1.57,.71-1.57,1.57v11.03c0,.87,.71,1.57,1.57,1.58H12.6c.87,0,1.57-.71,1.58-1.58v-11.03c0-.87-.71-1.57-1.58-1.57Z"/><path id="r" class="cls-4" d="M12.6,173.84v11.03H1.57v-11.03H12.6m0-1.57H1.57c-.87,0-1.57,.71-1.57,1.57v11.03c0,.87,.71,1.57,1.57,1.58H12.6c.87,0,1.57-.71,1.58-1.58v-11.03c0-.87-.71-1.57-1.58-1.57Z"/><path id="s" class="cls-4" d="M12.6,201.16v11.03H1.57v-11.03H12.6m0-1.57H1.57c-.87,0-1.57,.71-1.57,1.57v11.03c0,.87,.71,1.57,1.57,1.58H12.6c.87,0,1.57-.71,1.58-1.58v-11.03c0-.87-.71-1.57-1.58-1.57Z"/><path id="t" class="cls-4" d="M12.6,228.49v11.03H1.57v-11.03H12.6m0-1.57H1.57c-.87,0-1.57,.71-1.57,1.57v11.03c0,.87,.71,1.57,1.57,1.58H12.6c.87,0,1.57-.71,1.58-1.58v-11.03c0-.87-.71-1.57-1.58-1.57Z"/><path id="u" class="cls-4" d="M12.6,255.81v11.03H1.57v-11.03H12.6m0-1.57H1.57c-.87,0-1.57,.71-1.57,1.57v11.03c0,.87,.71,1.57,1.57,1.58H12.6c.87,0,1.57-.71,1.58-1.58v-11.03c0-.87-.71-1.57-1.58-1.57Z"/><path id="v" class="cls-4" d="M12.6,283.14v11.03H1.57v-11.03H12.6m0-1.57H1.57c-.87,0-1.57,.71-1.57,1.57v11.03c0,.87,.71,1.57,1.57,1.58H12.6c.87,0,1.57-.71,1.58-1.58v-11.03c0-.87-.71-1.57-1.58-1.57Z"/><path id="w" class="cls-4" d="M12.6,310.46v11.03H1.57v-11.03H12.6m0-1.57H1.57c-.87,0-1.57,.71-1.57,1.57v11.03c0,.87,.71,1.57,1.57,1.58H12.6c.87,0,1.57-.71,1.58-1.58v-11.03c0-.87-.71-1.57-1.58-1.57Z"/><path class="cls-2" d="M108.7,334.07L109.69,0"/><path class="cls-3" d="M109.2,217.7c7.18,0,13,5.82,13,13s-5.82,13-13,13-13-5.82-13-13,5.82-13,13-13Z"/><path class="cls-1" d="M109.2,200.7c16.57,0,30,13.43,30,30s-13.43,30-30,30-30-13.43-30-30,13.43-30,30-30Z"/><path class="cls-4" d="M218.48,119.19v11.02c0,.87-.71,1.57-1.58,1.58h-11.03c-.87,0-1.57-.71-1.58-1.58v-11.02c0-.87,.71-1.57,1.58-1.58h11.03c.87,0,1.57,.71,1.58,1.58Z"/></svg>