<?xml version="1.0" encoding="UTF-8"?><svg id="a" xmlns="http://www.w3.org/2000/svg" viewBox="0 0 252.01 337"><defs><style>.a`{fill:#f6f6f6;}.aa{fill:none;stroke:#5eb563;stroke-width:5px;}.ab{fill:#5eb563;}.ac{fill:#5db463;}.ad{fill:#5ab463;isolation:isolate;opacity:.43;}</style></defs><path id="b" class="ac" d="M233.66,38.2v11.03h-11.03v-11.03h11.03m0-1.57h-11.03c-.87,0-1.57,.71-1.57,1.57v11.03c0,.87,.71,1.57,1.57,1.58h11.03c.87,0,1.57-.71,1.58-1.58v-11.03c0-.87-.71-1.57-1.58-1.57Z"/><path id="c" class="ac" d="M233.66,65.53v11.03h-11.03v-11.03h11.03m0-1.57h-11.03c-.87,0-1.57,.71-1.57,1.57v11.03c0,.87,.71,1.57,1.57,1.58h11.03c.87,0,1.57-.71,1.58-1.58v-11.03c0-.87-.71-1.57-1.58-1.57Z"/><path id="d" class="ac" d="M233.66,92.85v11.03h-11.03v-11.03h11.03m0-1.57h-11.03c-.87,0-1.57,.71-1.57,1.57v11.03c0,.87,.71,1.57,1.57,1.58h11.03c.87,0,1.57-.71,1.58-1.58v-11.03c0-.87-.71-1.57-1.58-1.57Z"/><path id="e" class="ac" d="M233.66,120.18v11.03h-11.03v-11.03h11.03m0-1.57h-11.03c-.87,0-1.57,.71-1.57,1.57v11.03c0,.87,.71,1.57,1.57,1.58h11.03c.87,0,1.57-.71,1.58-1.58v-11.03c0-.87-.71-1.57-1.58-1.57Z"/><path id="f" class="ac" d="M233.66,147.5v11.03h-11.03v-11.03h11.03m0-1.57h-11.03c-.87,0-1.57,.71-1.57,1.57v11.03c0,.87,.71,1.57,1.57,1.58h11.03c.87,0,1.57-.71,1.58-1.58v-11.03c0-.87-.71-1.57-1.58-1.57Z"/><path id="g" class="ac" d="M233.66,174.83v11.03h-11.03v-11.03h11.03m0-1.57h-11.03c-.87,0-1.57,.71-1.57,1.57v11.03c0,.87,.71,1.57,1.57,1.58h11.03c.87,0,1.57-.71,1.58-1.58v-11.03c0-.87-.71-1.57-1.58-1.57Z"/><path id="h" class="ac" d="M233.66,202.15v11.03h-11.03v-11.03h11.03m0-1.57h-11.03c-.87,0-1.57,.71-1.57,1.57v11.03c0,.87,.71,1.57,1.57,1.58h11.03c.87,0,1.57-.71,1.58-1.58v-11.03c0-.87-.71-1.57-1.58-1.57Z"/><path id="i" class="ac" d="M233.66,229.48v11.03h-11.03v-11.03h11.03m0-1.57h-11.03c-.87,0-1.57,.71-1.57,1.57v11.03c0,.87,.71,1.57,1.57,1.58h11.03c.87,0,1.57-.71,1.58-1.58v-11.03c0-.87-.71-1.57-1.58-1.57Z"/><path id="j" class="ac" d="M233.66,256.8v11.03h-11.03v-11.03h11.03m0-1.57h-11.03c-.87,0-1.57,.71-1.57,1.57v11.03c0,.87,.71,1.57,1.57,1.58h11.03c.87,0,1.57-.71,1.58-1.58v-11.03c0-.87-.71-1.57-1.58-1.57Z"/><path id="k" class="ac" d="M233.66,284.13v11.03h-11.03v-11.03h11.03m0-1.57h-11.03c-.87,0-1.57,.71-1.57,1.57v11.03c0,.87,.71,1.57,1.57,1.58h11.03c.87,0,1.57-.71,1.58-1.58v-11.03c0-.87-.71-1.57-1.58-1.57Z"/><path id="l" class="ac" d="M233.66,311.45v11.03h-11.03v-11.03h11.03m0-1.57h-11.03c-.87,0-1.57,.71-1.57,1.57v11.03c0,.87,.71,1.57,1.57,1.58h11.03c.87,0,1.57-.71,1.58-1.58v-11.03c0-.87-.71-1.57-1.58-1.57Z"/><path id="m" class="ac" d="M29.37,38.2v11.03h-11.03v-11.03h11.03m0-1.57h-11.03c-.87,0-1.57,.71-1.57,1.57v11.03c0,.87,.71,1.57,1.57,1.58h11.03c.87,0,1.57-.71,1.58-1.58v-11.03c0-.87-.71-1.57-1.58-1.57Z"/><path id="n" class="ac" d="M29.37,65.53v11.03h-11.03v-11.03h11.03m0-1.57h-11.03c-.87,0-1.57,.71-1.57,1.57v11.03c0,.87,.71,1.57,1.57,1.58h11.03c.87,0,1.57-.71,1.58-1.58v-11.03c0-.87-.71-1.57-1.58-1.57Z"/><path id="o" class="ac" d="M29.37,92.85v11.03h-11.03v-11.03h11.03m0-1.57h-11.03c-.87,0-1.57,.71-1.57,1.57v11.03c0,.87,.71,1.57,1.57,1.58h11.03c.87,0,1.57-.71,1.58-1.58v-11.03c0-.87-.71-1.57-1.58-1.57Z"/><path id="p" class="ac" d="M29.37,120.18v11.03h-11.03v-11.03h11.03m0-1.57h-11.03c-.87,0-1.57,.71-1.57,1.57v11.03c0,.87,.71,1.57,1.57,1.58h11.03c.87,0,1.57-.71,1.58-1.58v-11.03c0-.87-.71-1.57-1.58-1.57Z"/><path id="q" class="ac" d="M29.37,147.5v11.03h-11.03v-11.03h11.03m0-1.57h-11.03c-.87,0-1.57,.71-1.57,1.57v11.03c0,.87,.71,1.57,1.57,1.58h11.03c.87,0,1.57-.71,1.58-1.58v-11.03c0-.87-.71-1.57-1.58-1.57Z"/><path id="r" class="ac" d="M29.37,174.83v11.03h-11.03v-11.03h11.03m0-1.57h-11.03c-.87,0-1.57,.71-1.57,1.57v11.03c0,.87,.71,1.57,1.57,1.58h11.03c.87,0,1.57-.71,1.58-1.58v-11.03c0-.87-.71-1.57-1.58-1.57Z"/><path id="s" class="ac" d="M29.37,202.15v11.03h-11.03v-11.03h11.03m0-1.57h-11.03c-.87,0-1.57,.71-1.57,1.57v11.03c0,.87,.71,1.57,1.57,1.58h11.03c.87,0,1.57-.71,1.58-1.58v-11.03c0-.87-.71-1.57-1.58-1.57Z"/><path id="t" class="ac" d="M29.37,229.48v11.03h-11.03v-11.03h11.03m0-1.57h-11.03c-.87,0-1.57,.71-1.57,1.57v11.03c0,.87,.71,1.57,1.57,1.58h11.03c.87,0,1.57-.71,1.58-1.58v-11.03c0-.87-.71-1.57-1.58-1.57Z"/><path id="u" class="ac" d="M29.37,256.8v11.03h-11.03v-11.03h11.03m0-1.57h-11.03c-.87,0-1.57,.71-1.57,1.57v11.03c0,.87,.71,1.57,1.57,1.58h11.03c.87,0,1.57-.71,1.58-1.58v-11.03c0-.87-.71-1.57-1.58-1.57Z"/><path id="v" class="ac" d="M29.37,284.13v11.03h-11.03v-11.03h11.03m0-1.57h-11.03c-.87,0-1.57,.71-1.57,1.57v11.03c0,.87,.71,1.57,1.57,1.58h11.03c.87,0,1.57-.71,1.58-1.58v-11.03c0-.87-.71-1.57-1.58-1.57Z"/><path id="w" class="ac" d="M29.37,311.45v11.03h-11.03v-11.03h11.03m0-1.57h-11.03c-.87,0-1.57,.71-1.57,1.57v11.03c0,.87,.71,1.57,1.57,1.58h11.03c.87,0,1.57-.71,1.58-1.58v-11.03c0-.87-.71-1.57-1.58-1.57Z"/><g id="x"><path class="a`" d="M46.72,1H1V336H46.72V1h0ZM1.5,335.5V1.5H46.22V335.5H1.5Z"/></g><g id="y"><path class="a`" d="M251.01,1h-45.72V336h45.72V1h0Zm-45.22,334.5V1.5h44.72V335.5h-44.72Z"/></g><path class="aa" d="M125.47,335.06L126.46,1"/><path class="ab" d="M125.97,218.69c7.18,0,13,5.82,13,13s-5.82,13-13,13-13-5.82-13-13,5.82-13,13-13Z"/><path class="ad" d="M125.97,201.69c16.57,0,30,13.43,30,30s-13.43,30-30,30-30-13.43-30-30,13.43-30,30-30Z"/><path class="ac" d="M30.95,10.88v11.02c0,.87-.71,1.57-1.58,1.58h-11.03c-.87,0-1.57-.71-1.58-1.58V10.88c0-.87,.71-1.57,1.58-1.58h11.03c.87,0,1.57,.71,1.58,1.58Z"/><path class="ac" d="M235.24,10.88v11.02c0,.87-.71,1.57-1.58,1.58h-11.02c-.87,0-1.57-.71-1.58-1.58V10.88c0-.87,.71-1.57,1.58-1.58h11.02c.87,0,1.57,.71,1.58,1.58Z"/></svg>