<?xml version="1.0" encoding="utf-8"?>
<!-- Generator: Adobe Illustrator 26.3.1, SVG Export Plug-In . SVG Version: 6.00 Build 0)  -->
<svg version="1.1" id="a" xmlns="http://www.w3.org/2000/svg" xmlns:xlink="http://www.w3.org/1999/xlink" x="0px" y="0px"
	 viewBox="0 0 252 337" style="enable-background:new 0 0 252 337;" xml:space="preserve">
<style type="text/css">
	.st0{fill:#5DB463;}
	.st1{fill:none;stroke:#5EB563;stroke-width:5;}
	.st2{fill:#5EB563;}
	.st3{opacity:0.43;fill:#5AB463;enable-background:new    ;}
</style>
<path id="b" class="st0" d="M233.7,38.2v11h-11v-11H233.7 M233.7,36.6h-11c-0.9,0-1.6,0.7-1.6,1.6v11c0,0.9,0.7,1.6,1.6,1.6h11
	c0.9,0,1.6-0.7,1.6-1.6v-11C235.2,37.3,234.5,36.6,233.7,36.6z"/>
<path id="c" class="st0" d="M233.7,65.5v11h-11v-11H233.7 M233.7,64h-11c-0.9,0-1.6,0.7-1.6,1.6v11c0,0.9,0.7,1.6,1.6,1.6h11
	c0.9,0,1.6-0.7,1.6-1.6v-11C235.2,64.7,234.5,64,233.7,64z"/>
<path id="d" class="st0" d="M233.7,92.8v11h-11v-11H233.7 M233.7,91.3h-11c-0.9,0-1.6,0.7-1.6,1.6v11c0,0.9,0.7,1.6,1.6,1.6h11
	c0.9,0,1.6-0.7,1.6-1.6v-11C235.2,92,234.5,91.3,233.7,91.3z"/>
<path id="e" class="st0" d="M233.7,120.2v11h-11v-11L233.7,120.2 M233.7,118.6h-11c-0.9,0-1.6,0.7-1.6,1.6v11c0,0.9,0.7,1.6,1.6,1.6
	h11c0.9,0,1.6-0.7,1.6-1.6v-11C235.2,119.3,234.5,118.6,233.7,118.6z"/>
<path id="f" class="st0" d="M233.7,147.5v11h-11v-11H233.7 M233.7,145.9h-11c-0.9,0-1.6,0.7-1.6,1.6v11c0,0.9,0.7,1.6,1.6,1.6h11
	c0.9,0,1.6-0.7,1.6-1.6v-11C235.2,146.6,234.5,145.9,233.7,145.9z"/>
<path id="g" class="st0" d="M233.7,174.8v11h-11v-11H233.7 M233.7,173.3h-11c-0.9,0-1.6,0.7-1.6,1.6v11c0,0.9,0.7,1.6,1.6,1.6h11
	c0.9,0,1.6-0.7,1.6-1.6v-11C235.2,174,234.5,173.3,233.7,173.3z"/>
<path id="h" class="st0" d="M233.7,202.1v11h-11v-11H233.7 M233.7,200.6h-11c-0.9,0-1.6,0.7-1.6,1.6v11c0,0.9,0.7,1.6,1.6,1.6h11
	c0.9,0,1.6-0.7,1.6-1.6v-11C235.2,201.3,234.5,200.6,233.7,200.6z"/>
<path id="i" class="st0" d="M233.7,229.5v11h-11v-11H233.7 M233.7,227.9h-11c-0.9,0-1.6,0.7-1.6,1.6v11c0,0.9,0.7,1.6,1.6,1.6h11
	c0.9,0,1.6-0.7,1.6-1.6v-11C235.2,228.6,234.5,227.9,233.7,227.9z"/>
<path id="j" class="st0" d="M233.7,256.8v11h-11v-11H233.7 M233.7,255.2h-11c-0.9,0-1.6,0.7-1.6,1.6v11c0,0.9,0.7,1.6,1.6,1.6h11
	c0.9,0,1.6-0.7,1.6-1.6v-11C235.2,255.9,234.5,255.2,233.7,255.2z"/>
<path id="k" class="st0" d="M233.7,284.1v11h-11v-11H233.7 M233.7,282.6h-11c-0.9,0-1.6,0.7-1.6,1.6v11c0,0.9,0.7,1.6,1.6,1.6h11
	c0.9,0,1.6-0.7,1.6-1.6v-11C235.2,283.3,234.5,282.6,233.7,282.6z"/>
<path id="l" class="st0" d="M233.7,311.5v11h-11v-11H233.7 M233.7,309.9h-11c-0.9,0-1.6,0.7-1.6,1.6v11c0,0.9,0.7,1.6,1.6,1.6h11
	c0.9,0,1.6-0.7,1.6-1.6v-11C235.2,310.6,234.5,309.9,233.7,309.9z"/>
<path id="m" class="st0" d="M29.4,38.2v11h-11v-11H29.4 M29.4,36.6h-11c-0.9,0-1.6,0.7-1.6,1.6v11c0,0.9,0.7,1.6,1.6,1.6h11
	c0.9,0,1.6-0.7,1.6-1.6v-11C30.9,37.3,30.2,36.6,29.4,36.6z"/>
<path id="m_00000041281929109056124350000011584999817928336534_" class="st0" d="M29.4,10.9v11h-11v-11H29.4 M29.4,9.3h-11
	c-0.9,0-1.6,0.7-1.6,1.6v11c0,0.9,0.7,1.6,1.6,1.6h11c0.9,0,1.6-0.7,1.6-1.6v-11C30.9,10,30.2,9.3,29.4,9.3z"/>
<path id="m_00000115516371222015590550000010235100155510245294_" class="st0" d="M233.7,10.9v11h-11v-11H233.7 M233.7,9.3h-11
	c-0.9,0-1.6,0.7-1.6,1.6v11c0,0.9,0.7,1.6,1.6,1.6h11c0.9,0,1.6-0.7,1.6-1.6v-11C235.2,10,234.5,9.3,233.7,9.3z"/>
<path id="n" class="st0" d="M29.4,65.5v11h-11v-11H29.4 M29.4,64h-11c-0.9,0-1.6,0.7-1.6,1.6v11c0,0.9,0.7,1.6,1.6,1.6h11
	c0.9,0,1.6-0.7,1.6-1.6v-11C30.9,64.7,30.2,64,29.4,64z"/>
<path id="o" class="st0" d="M29.4,92.8v11h-11v-11H29.4 M29.4,91.3h-11c-0.9,0-1.6,0.7-1.6,1.6v11c0,0.9,0.7,1.6,1.6,1.6h11
	c0.9,0,1.6-0.7,1.6-1.6v-11C30.9,92,30.2,91.3,29.4,91.3z"/>
<path id="p" class="st0" d="M29.4,120.2v11h-11v-11L29.4,120.2 M29.4,118.6h-11c-0.9,0-1.6,0.7-1.6,1.6v11c0,0.9,0.7,1.6,1.6,1.6h11
	c0.9,0,1.6-0.7,1.6-1.6v-11C30.9,119.3,30.2,118.6,29.4,118.6z"/>
<path id="q" class="st0" d="M29.4,147.5v11h-11v-11H29.4 M29.4,145.9h-11c-0.9,0-1.6,0.7-1.6,1.6v11c0,0.9,0.7,1.6,1.6,1.6h11
	c0.9,0,1.6-0.7,1.6-1.6v-11C30.9,146.6,30.2,145.9,29.4,145.9z"/>
<path id="r" class="st0" d="M29.4,174.8v11h-11v-11H29.4 M29.4,173.3h-11c-0.9,0-1.6,0.7-1.6,1.6v11c0,0.9,0.7,1.6,1.6,1.6h11
	c0.9,0,1.6-0.7,1.6-1.6v-11C30.9,174,30.2,173.3,29.4,173.3z"/>
<path id="s" class="st0" d="M29.4,202.1v11h-11v-11H29.4 M29.4,200.6h-11c-0.9,0-1.6,0.7-1.6,1.6v11c0,0.9,0.7,1.6,1.6,1.6h11
	c0.9,0,1.6-0.7,1.6-1.6v-11C30.9,201.3,30.2,200.6,29.4,200.6z"/>
<path id="t" class="st0" d="M29.4,229.5v11h-11v-11H29.4 M29.4,227.9h-11c-0.9,0-1.6,0.7-1.6,1.6v11c0,0.9,0.7,1.6,1.6,1.6h11
	c0.9,0,1.6-0.7,1.6-1.6v-11C30.9,228.6,30.2,227.9,29.4,227.9z"/>
<path id="u" class="st0" d="M29.4,256.8v11h-11v-11H29.4 M29.4,255.2h-11c-0.9,0-1.6,0.7-1.6,1.6v11c0,0.9,0.7,1.6,1.6,1.6h11
	c0.9,0,1.6-0.7,1.6-1.6v-11C30.9,255.9,30.2,255.2,29.4,255.2z"/>
<path id="v" class="st0" d="M29.4,284.1v11h-11v-11H29.4 M29.4,282.6h-11c-0.9,0-1.6,0.7-1.6,1.6v11c0,0.9,0.7,1.6,1.6,1.6h11
	c0.9,0,1.6-0.7,1.6-1.6v-11C30.9,283.3,30.2,282.6,29.4,282.6z"/>
<path id="w" class="st0" d="M29.4,311.5v11h-11v-11H29.4 M29.4,309.9h-11c-0.9,0-1.6,0.7-1.6,1.6v11c0,0.9,0.7,1.6,1.6,1.6h11
	c0.9,0,1.6-0.7,1.6-1.6v-11C30.9,310.6,30.2,309.9,29.4,309.9z"/>
<path class="st1" d="M125.5,335.1l1-334.1"/>
<path class="st2" d="M126,218.7c7.2,0,13,5.8,13,13s-5.8,13-13,13s-13-5.8-13-13S118.8,218.7,126,218.7z"/>
<path class="st3" d="M126,201.7c16.6,0,30,13.4,30,30s-13.4,30-30,30s-30-13.4-30-30S109.4,201.7,126,201.7z"/>
<path class="st0" d="M31,147.5v11c0,0.9-0.7,1.6-1.6,1.6h-11c-0.9,0-1.6-0.7-1.6-1.6v-11c0-0.9,0.7-1.6,1.6-1.6h11
	C30.2,145.9,30.9,146.6,31,147.5z"/>
</svg>
