<svg id="a" xmlns="http://www.w3.org/2000/svg" viewBox="0 0 146.08 146.08"><defs><style>.cls-1{fill:#4ec663;}</style></defs><path id="b" class="cls-1" d="M45.65,9.13H9.13V45.65H45.65ZM54.78,0V54.78H0V0ZM18.26,18.26H36.52V36.52H18.26ZM137,9.13H100.43V45.65H137V9.13ZM146.07,0V54.78H91.29V0ZM109.55,18.26h18.26V36.52H109.55Zm-63.9,82.17H9.13V137H45.65Zm9.13-9.13v54.78H0V91.3ZM18.26,109.56H36.52v18.26H18.26ZM63.91,0H73V9.13H63.91ZM73,9.13h9.13v9.13H73Zm-9.13,9.13H73v9.13H63.91ZM73,27.39h9.13v9.13H73Zm-9.13,9.13H73v9.13H63.91ZM73,45.65h9.13v9.13H73Zm-9.13,9.13H73v9.13H63.91Zm0,18.26H73v9.13H63.91ZM73,82.17h9.13V91.3H73ZM63.91,91.3H73v9.13H63.91ZM73,100.43h9.13v9.13H73Zm-9.13,9.13H73v9.13H63.91ZM73,118.69h9.13v9.13H73Zm-9.13,9.13H73V137H63.91ZM73,137h9.13v9.12H73ZM137,73h9.13v9.13H137ZM9.13,73h9.13v9.13H9.13Zm9.13-9.13h9.13V73H18.26ZM0,63.91H9.13V73H0Zm36.52,0h9.13V73H36.52ZM45.65,73h9.13v9.13H45.65Zm9.13-9.13h9.13V73H54.78ZM82.17,73H91.3v9.13H82.17Zm9.13-9.13h9.13V73H91.3ZM100.43,73h9.13v9.13h-9.13Zm9.13-9.13h9.13V73h-9.13ZM118.69,73h9.13v9.13h-9.13Zm9.13-9.13H137V73h-9.13ZM137,91.3h9.13v9.13H137Zm-54.78,0H91.3v9.13H82.17Zm9.13-9.13h9.13V91.3H91.3Zm9.13,9.13h9.13v9.13h-9.13Zm18.26,0h9.13v9.13h-9.13Zm9.13-9.13H137V91.3h-9.13ZM137,109.56h9.13v9.13H137Zm-54.78,0H91.3v9.13H82.17Zm9.13-9.13h9.13v9.13H91.3Zm18.26,0h9.13v9.13h-9.13Zm9.13,9.13h9.13v9.13h-9.13Zm9.13-9.13H137v9.13h-9.13ZM137,127.82h9.13V137H137ZM91.3,118.69h9.13v9.13H91.3Zm9.13,9.13h9.13V137h-9.13Zm9.13-9.13h9.13v9.13h-9.13Zm9.13,9.13h9.13V137h-9.13ZM91.3,137h9.12v9.12H91.29V137Zm18.26,0h9.13v9.12h-9.13Zm18.26,0H137v9.12h-9.13Z"/></svg>